<svg xmlns="http://www.w3.org/2000/svg" width="584" height="584" viewBox="0 0 584 584">
    <g fill="none" fill-rule="evenodd">
        <path fill="#F2F2F2" d="M0 0h584v584H0z"/>
        <path fill="#CCC" d="M317.046 262.5h-49.09a5.455 5.455 0 0 0-5.455 5.455v49.091a5.454 5.454 0 0 0 5.454 5.455h49.091a5.454 5.454 0 0 0 5.455-5.455v-49.09a5.455 5.455 0 0 0-5.455-5.455zm-39.545 8.183a6.819 6.819 0 1 1-.001 13.637 6.819 6.819 0 0 1 0-13.637zm35.454 43.636h-40.909c-.753 0-1.363-.61-1.363-1.362 0-.28.105-.528.249-.743l-.02-.015 13.636-23.182.02.014c.247-.364.642-.621 1.115-.621.567 0 1.052.348 1.257.84l7.119 10.675 5.66-5.66a1.357 1.357 0 0 1 2.226.46l.004-.002 11.941 17.25c.14.132.25.287.325.467l.007.01-.004.003c.061.155.101.324.101.505 0 .752-.61 1.361-1.364 1.361z"/>
    </g>
</svg>
